<svg width="86" height="33" viewBox="33 22 86 33" fill="none" xmlns="http://www.w3.org/2000/svg">

<path fill-rule="evenodd" clip-rule="evenodd" d="M104.923 32.8568L109.245 43.6606C108.946 44.558 108.543 45.2093 108.036 45.6138C107.529 46.0185 106.843 46.2121 105.979 46.1946V49.362C107.575 49.4499 108.904 49.0672 109.976 48.2138C111.044 47.3604 111.905 45.9879 112.553 44.105L117.099 30.8852H113.658L110.899 39.7541L107.649 30.8852H104.923H104.134H102.28V30.7534C102.28 29.1168 103.161 28.369 104.923 28.5097V25.2367C102.978 25.1136 101.515 25.5358 100.534 26.5037C99.5537 27.4716 99.0635 28.888 99.0635 30.7534V30.8852H97.2683V34.1582H99.0635V44.0829H102.28V34.1582H104.923V32.8566L104.923 32.8568ZM96.4237 28.6814C96.8143 28.2678 97.0097 27.7795 97.0097 27.2163C97.0097 26.6533 96.8145 26.1605 96.4237 25.7381C96.033 25.3158 95.5634 25.1046 95.0149 25.1046C94.4831 25.1046 94.0218 25.3158 93.6311 25.7381C93.2405 26.1605 93.0453 26.6531 93.0453 27.2163C93.0453 27.7795 93.2405 28.2678 93.6311 28.6814C94.0218 29.0949 94.4831 29.3016 95.0149 29.3016C95.5634 29.3016 96.033 29.0949 96.4237 28.6814ZM93.4193 30.8854V44.0831H96.6357V30.8854H93.4193ZM88.8159 24.8146V44.0831H92.0323V24.8146H88.8159Z" fill="#797979"/>
<path fill-rule="evenodd" clip-rule="evenodd" d="M46.2408 25.9816C43.349 25.9816 40.8044 27.2097 38.8366 29.4385C36.8682 31.6681 35.9004 34.4427 35.9004 37.4828H39.2757C39.2757 35.3462 39.921 33.4433 41.3026 31.8784C42.6334 30.3713 44.2871 29.5548 46.2408 29.5548C46.4405 29.5548 46.6402 29.5624 46.8392 29.5781V25.9981C46.6405 25.9871 46.4409 25.9816 46.2408 25.9816ZM46.2408 30.5144C44.5787 30.5144 43.1532 31.1875 41.9647 32.5336C40.7762 33.8797 40.1821 35.5296 40.1821 37.4828H43.3985C43.3985 36.3918 43.7227 35.4987 44.3709 34.8037C45.0191 34.1087 45.8419 33.7611 46.8392 33.7611V30.5411C46.6452 30.5233 46.4457 30.5146 46.2408 30.5146V30.5144Z" fill="#797979"/>
<path d="M41.3503 52.2291V49.135H40.4199V53.1154H43.1619V52.2289H41.3503V52.2291ZM47.8392 50.0215V49.135H44.8783V53.1154H47.8392V52.2289H45.8142V51.5277H47.6533V50.6411H45.8142V50.0211H47.8392V50.0215ZM52.3032 53.1156H53.354L51.8653 49.1352H50.8144L49.3259 53.1156H50.3767L50.5957 52.5361H52.0844L52.3034 53.1156H52.3032ZM50.8857 51.7599L51.34 50.5375L51.7942 51.7599H50.8857ZM54.983 53.1156H56.3566C57.6485 53.1156 58.5568 52.2871 58.5568 51.1225C58.5568 49.958 57.6483 49.1352 56.3566 49.1352H54.983V53.1156ZM55.9189 52.2176V50.0332H56.499C57.1393 50.0332 57.599 50.4852 57.599 51.1225C57.599 51.7599 57.1393 52.2176 56.499 52.2176H55.9189ZM64.4396 53.1853C65.3699 53.1853 65.9448 52.687 65.9448 51.8875C65.9448 51.1401 65.403 50.885 64.5601 50.6939C64.0019 50.5663 63.8213 50.4854 63.8213 50.2419C63.8213 50.0448 63.9911 49.8942 64.2919 49.8942C64.6422 49.8942 65.0199 50.0391 65.3647 50.3171L65.8409 49.6102C65.4414 49.2568 64.9488 49.0657 64.3195 49.0657C63.4602 49.0657 62.8802 49.5755 62.8802 50.3404C62.8802 51.1401 63.4766 51.3717 64.2813 51.5629C64.8287 51.7019 65.0036 51.7542 65.0036 51.9917C65.0036 52.2062 64.8231 52.3568 64.4728 52.3568C64.0131 52.3568 63.6025 52.1714 63.2359 51.8527L62.7104 52.5191C63.1648 52.9537 63.7723 53.1855 64.44 53.1855L64.4396 53.1853ZM69.5713 53.1853C70.6714 53.1853 71.5963 52.2409 71.5963 51.1227C71.5963 50.0046 70.6714 49.0659 69.5713 49.0659C68.4767 49.0659 67.5517 50.0046 67.5517 51.1227C67.5517 52.2409 68.4767 53.1853 69.5713 53.1853ZM69.5713 52.2873C68.9967 52.2873 68.5095 51.7542 68.5095 51.1227C68.5095 50.497 68.9967 49.9639 69.5713 49.9639C70.146 49.9639 70.6331 50.497 70.6331 51.1227C70.6331 51.7542 70.146 52.2873 69.5713 52.2873ZM74.2871 52.2293V49.1352H73.3568V53.1156H76.0987V52.2291H74.2871V52.2293ZM79.5391 53.1853C80.5681 53.1853 81.285 52.438 81.285 51.3717V49.1352H80.3547V51.3253C80.3547 51.8875 80.0154 52.2871 79.5393 52.2871C79.0687 52.2871 78.7292 51.8873 78.7292 51.3253V49.1352H77.7933V51.3717C77.7933 52.4378 78.5157 53.1853 79.5393 53.1853H79.5391ZM84.129 53.1158H85.0649V50.0217H86.2034V49.1352H82.9853V50.0217H84.1291V53.1158H84.129ZM87.9416 53.1158H88.8776V49.1354H87.9416V53.1158ZM92.6902 53.1853C93.7903 53.1853 94.7152 52.2409 94.7152 51.1227C94.7152 50.0046 93.7903 49.0659 92.6902 49.0659C91.5956 49.0659 90.6706 50.0046 90.6706 51.1227C90.6706 52.2409 91.5956 53.1853 92.6902 53.1853ZM92.6902 52.2873C92.1156 52.2873 91.6284 51.7542 91.6284 51.1227C91.6284 50.497 92.1156 49.9639 92.6902 49.9639C93.2649 49.9639 93.752 50.497 93.752 51.1227C93.752 51.7542 93.2649 52.2873 92.6902 52.2873ZM96.5029 53.1158H97.4388V50.7634L99.0753 53.1158H100.011V49.1354H99.0753V51.4878L97.4388 49.1354H96.5029V53.1158ZM103.419 53.1853C104.349 53.1853 104.924 52.687 104.924 51.8875C104.924 51.1401 104.382 50.885 103.539 50.6939C102.981 50.5663 102.801 50.4854 102.801 50.2419C102.801 50.0448 102.97 49.8942 103.271 49.8942C103.622 49.8942 103.999 50.0391 104.344 50.3171L104.82 49.6102C104.421 49.2568 103.928 49.0657 103.299 49.0657C102.44 49.0657 101.86 49.5755 101.86 50.3404C101.86 51.1401 102.456 51.3717 103.261 51.5629C103.808 51.7019 103.983 51.7542 103.983 51.9917C103.983 52.2062 103.802 52.3568 103.452 52.3568C102.992 52.3568 102.582 52.1714 102.215 51.8527L101.69 52.5191C102.144 52.9537 102.752 53.1855 103.419 53.1855L103.419 53.1853Z" fill="#797979"/>
<path fill-rule="evenodd" clip-rule="evenodd" d="M74.5704 30.885V47.7283H77.7868V42.5254C78.7343 43.81 80.0807 44.4523 81.8259 44.4523C83.5047 44.4523 84.9384 43.7791 86.1267 42.4331C87.3152 41.087 87.9096 39.4371 87.9096 37.4839C87.9096 35.5306 87.3152 33.881 86.1267 32.5347C84.9382 31.1886 83.5047 30.5154 81.8259 30.5154C80.0805 30.5154 78.7343 31.1577 77.7868 32.4423V30.885H74.5704ZM47.6942 33.8571C48.3189 34.0034 48.8605 34.3193 49.3191 34.8047C49.9756 35.4998 50.3039 36.3929 50.3039 37.4839C50.3039 38.5748 49.9756 39.468 49.3191 40.163C48.6626 40.858 47.8356 41.2055 46.8382 41.2055C45.8409 41.2055 45.0181 40.858 44.3699 40.163C43.9111 39.6711 43.6149 39.0802 43.4807 38.3901H40.2261C40.3846 39.9526 40.9639 41.3002 41.9639 42.4331C43.1524 43.7791 44.5777 44.4523 46.24 44.4523C47.9854 44.4523 49.3402 43.81 50.3041 42.5254V44.0827H53.5205V30.885H50.3041V32.4423C49.6269 31.54 48.757 30.9547 47.6944 30.6861V33.8571H47.6942ZM54.8824 30.885V44.0827H58.0988V36.6656C58.0988 35.6976 58.3108 34.9587 58.7346 34.4482C59.1585 33.938 59.7279 33.6829 60.4426 33.6829C61.1074 33.6829 61.6228 33.9029 61.9883 34.3428C62.354 34.7827 62.5369 35.3986 62.5369 36.1903V44.0825H65.7533V36.6654C65.7533 35.6974 65.9568 34.9585 66.364 34.448C66.7713 33.9378 67.3407 33.6827 68.0719 33.6827C68.7368 33.6827 69.2521 33.9026 69.6177 34.3426C69.9834 34.7825 70.1663 35.3984 70.1663 36.1901V44.0823H73.3826V35.9526C73.3826 34.2984 72.9545 32.9787 72.0986 31.9932C71.2426 31.0079 70.0998 30.515 68.6702 30.515C67.0246 30.515 65.7863 31.1485 64.955 32.4155C64.2237 31.1485 63.0934 30.515 61.5641 30.515C60.0017 30.515 58.8464 31.1046 58.0984 32.2834V30.8844H54.882L54.8824 30.885ZM81.2275 41.2057C80.2302 41.2057 79.4074 40.8582 78.7592 40.1632C78.111 39.4682 77.7868 38.5751 77.7868 37.4841C77.7868 36.3931 78.111 35.5 78.7592 34.805C79.4074 34.1099 80.2302 33.7624 81.2275 33.7624C82.2248 33.7624 83.0519 34.1099 83.7084 34.805C84.3649 35.5 84.6932 36.3931 84.6932 37.4841C84.6932 38.5751 84.3649 39.4682 83.7084 40.1632C83.0519 40.8582 82.2248 41.2057 81.2275 41.2057Z" fill="#797979"/>
</svg>
