<svg viewBox="0 0 98 26" fill="none" xmlns="http://www.w3.org/2000/svg">
  <g transform="translate(3, 1) scale(0.6)">
    <path d="M16 0H8C3.58 0 0 3.58 0 8s3.58 8 8 8h8V0z" fill="#F24E1E"/>
    <path d="M0 24c0-4.42 3.58-8 8-8h8v16H8c-4.42 0-8-3.58-8-8z" fill="#0ACF83"/>
    <path d="M0 40c0-4.42 3.58-8 8-8h8v8c0 4.42-3.58 8-8 8s-8-3.58-8-8z" fill="#A259FF"/>
    <path d="M16 16h8c4.42 0 8-3.58 8-8s-3.58-8-8-8h-8v16z" fill="#FF7262"/>
    <path d="M32 24c0-4.42-3.58-8-8-8h-8v16h8c4.42 0 8-3.58 8-8z" fill="#1ABCFE"/>
  </g>
  <text x="32" y="18.5" fill="currentColor" font-family="-apple-system, BlinkMacSystemFont, 'Segoe UI', Roboto, sans-serif" font-weight="700" font-size="16">Figma</text>
</svg>