<svg width="63" height="40" viewBox="45 18 63 40" fill="none" xmlns="http://www.w3.org/2000/svg">

<path d="M73.4136 40.8634L73.1899 41.4728L67.7554 56.2667L67.646 56.5656L67.3276 56.5636L64.3208 56.545L63.6763 56.5402L63.8989 55.9357L69.3267 41.1603L69.436 40.8634H73.4136Z" fill="#797979" stroke="#797979" stroke-width="0.906084"/>
<path d="M81.3867 36.2235L81.1631 36.8329L74.0225 56.2684L73.9131 56.5673L73.5947 56.5653L70.5879 56.5468L69.9434 56.5419L70.166 55.9374L77.2988 36.5204L77.4082 36.2235H81.3867Z" fill="#797979" stroke="#797979" stroke-width="0.906084"/>
<path d="M88.458 24.5153L91.1133 25.4899L91.5391 25.6461L91.3828 26.0719L80.29 56.2672L80.1807 56.566L79.8623 56.5641L76.8555 56.5446L76.2109 56.5406L76.4336 55.9352L87.877 24.7838L88.0332 24.359L88.458 24.5153Z" fill="#797979" stroke="#797979" stroke-width="0.906084"/>
<path d="M95.1084 26.8782L105.754 55.9543L105.977 56.5627H86.876L87.0117 56.0032L87.6982 53.175L87.7822 52.8284H100.628L93.0381 32.092L92.9912 31.9622L93.0244 31.8274L94.2432 26.9241L94.5996 25.4895L95.1084 26.8782Z" fill="#797979" stroke="#797979" stroke-width="0.906084"/>
<path d="M91.2988 21.6862L92.5596 27.4274L92.7275 28.194L91.9805 27.9557L86.3789 26.1774L85.6309 25.9401L86.21 25.4108L90.5508 21.4489L91.1309 20.9205L91.2988 21.6862Z" fill="#797979" stroke="#797979" stroke-width="0.906084"/>
<path d="M61.2461 21.42L61.3555 21.7159L65.5752 33.1329L65.8008 33.7433H61.8252L61.7139 33.4513L58.4492 24.8771H54.3799L50.6758 28.1759V49.9113L54.3809 53.212H58.4492L61.7139 44.6378L61.8252 44.3468H65.8008L65.5752 44.9562L61.3555 56.3732L61.2461 56.6691H53.0625L52.9336 56.5548L47.3701 51.5968L47.2188 51.4611V26.6271L47.3701 26.4923L52.9336 21.5353L53.0625 21.42H61.2461Z" fill="#797979" stroke="#797979" stroke-width="0.906084"/>
</svg>
